<?xml version="1.0" encoding="UTF-8" standalone="no"?>
<svg
   width="616"
   height="604"
   viewBox="194 201 616 604"
   role="img"
   aria-labelledby="title desc"
   version="1.1"
   id="svg56"
   sodipodi:docname="oac-logo-dotted-trace.svg"
   inkscape:version="1.4.2 (f4327f4, 2025-05-13)"
   xmlns:inkscape="http://www.inkscape.org/namespaces/inkscape"
   xmlns:sodipodi="http://sodipodi.sourceforge.net/DTD/sodipodi-0.dtd"
   xmlns="http://www.w3.org/2000/svg"
   xmlns:svg="http://www.w3.org/2000/svg">
  <sodipodi:namedview
     id="namedview56"
     pagecolor="#ffffff"
     bordercolor="#1c1c1c"
     borderopacity="0.25"
     inkscape:showpageshadow="2"
     inkscape:pageopacity="0.0"
     inkscape:pagecheckerboard="0"
     inkscape:deskcolor="#ffffff"
     inkscape:zoom="0.70710678"
     inkscape:cx="-251.73001"
     inkscape:cy="307.59145"
     inkscape:window-width="2560"
     inkscape:window-height="1369"
     inkscape:window-x="-8"
     inkscape:window-y="-8"
     inkscape:window-maximized="1"
     inkscape:current-layer="svg56" />
  <title
     id="title">OAC logo dotted trace</title>
  <desc
     id="desc">Three-color SVG trace of the OAC logo variant with black dots over the red exclamation point dot.</desc>
  <defs
     id="defs1">
    <clipPath
       id="clip-action-panel">
      <path
         d="M 640.955367,269 H 811 V 367 H 668.944934 Z"
         id="path-action-panel-slanted-clip" />
    </clipPath>
    <clipPath
       id="clip-face-panel">
      <path
         d="M655 385H811V623H736Z"
         id="path1" />
    </clipPath>
  </defs>
  <g
     id="background">
    <rect
       x="112"
       y="109"
       width="800"
       height="800"
       rx="151"
       ry="151"
       fill="#1c1c1c"
       id="rect3" />
  </g>
  <g
     id="c-shaped-border"
     fill="none"
     stroke="#f8efe3"
     stroke-width="50"
     stroke-linecap="butt"
     stroke-linejoin="round">
    <path
       d="M810 226H322C265 226 219 272 219 333V676C219 733 265 780 322 780H810"
       id="path3" />
  </g>
  <g
     id="oa-text"
     fill="#f8efe3"
     fill-rule="evenodd">
    <path
       id="letter-o"
       d="       M493 508.5       A115.5 121.5 0 1 1 262 508.5       A115.5 121.5 0 1 1 493 508.5       Z       M443 508.5       A65.5 69.5 0 1 0 312 508.5       A65.5 69.5 0 1 0 443 508.5       Z" />
    <path
       id="letter-a"
       d="       M561 390       H600       L681 628       H630       L616 586       H544       L529 628       H478       Z       M579 485       L556 545       H604       Z" />
  </g>
  <g
     id="action-panel"
     transform="matrix(1.1916205,0,0,1,-155.40427,0)">
    <path
       id="action-panel-white-rectangle"
       d="M 646.955367,269 H 811 V 367 H 674.944934 Z"
       fill="#f8efe3" />
    <g
       id="action-panel-black-triangles"
       clip-path="url(#clip-action-panel)"
       fill="#1c1c1c">
      <polygon
         points="744,322 575.103,182.132 573.095,154.259 "
         id="polygon3" />
      <polygon
         points="763,324 567.346,138.466 562.888,103.876 "
         id="polygon4" />
      <polygon
         points="779,331 558.991,91.692 547.216,25.242 "
         id="polygon5" />
      <polygon
         points="795,321 547.870,53.275 534.372,-17.817 "
         id="polygon6" />
      <polygon
         points="707,303 579.747,189.886 577.931,221.735 "
         id="polygon7" />
      <polygon
         points="731,341 586.207,233.115 585.822,252.754 "
         id="polygon8" />
      <polygon
         points="713,362 597.667,285.111 594.797,308.271 "
         id="polygon9" />
    </g>
  </g>
  <g
     id="face-panel">
    <path
       id="face-panel-white-trapezoid"
       d="M655 385H811V623H736Z"
       fill="#f8efe3"
       style="fill:#f8efe3" />
    <g
       id="face-panel-black-elements"
       clip-path="url(#clip-face-panel)"
       fill="#1c1c1c">
      <path
         id="face-panel-inkscape-trace"
         transform="matrix(0.25,0,0,0.25,679,385)"
         d="M 246.19617,925.70239 C 236.67322,900.56723 232.65579,873.5238 226.59613,847.19448 218.42634,822.15591 212.9495,796.20819 207,770.5 201.0505,744.79181 195.57366,718.84409 187.40387,693.80552 183.03831,666.15013 173.35948,640.1018 169,612.5 163.16945,586.63563 154.98922,561.51199 150.59613,535.19448 143.51644,509.18378 137.99635,482.58923 131,456.5 124.12815,431.70896 119.7238,406.14006 111.40387,381.80552 107.01078,355.48801 98.830547,330.36437 93,304.5 86.458164,277.49629 78.735214,250.91928 74.596124,223.19448 66.276203,198.85994 61.871848,173.29104 55,148.5 47.150696,122.64237 44.138101,95.361346 35.403876,69.805527 34.745134,47.438617 8.1225636,12.888257 50.029364,23.184183 115.99545,23.690481 182.20241,21.30551 248.02433,24.529315 242.45881,50.540278 236.14244,77.900238 229.31713,104.27298 233.07645,139.43025 206.96065,167.66307 191,196.5 c -14.75863,25.79304 -14.5723,55.44832 -18,84 -0.52957,17.36214 -11.27347,54.71772 16.5,26.5 31.43569,-21.43504 67.8561,-34.23764 99.60568,-55.1161 30.84358,-3.84376 61.44155,-1.43717 87.39432,17.1161 21.95122,8.64211 42.96883,20.21883 65.622,26.47733 19.43033,11.7135 46.72011,15.65865 62.24912,28.60528 0.12688,44.04527 2.6216,88.83758 -1.37112,132.41739 -7.02829,25.26334 -37.86016,45.39986 -63.5,38.5 -35.79257,6.83529 -45.85232,-45.48901 -67.17375,-50 -16.09929,9.16625 -64.19476,14.46865 -26.2963,33.57397 27.55356,28.376 -27.35359,-1.73756 -38.52995,-7.57397 -19.27262,-8.1464 -39.72457,-13.00425 -11.43619,-30.56389 19.87324,-15.96606 40.44306,-41.1415 68.02291,-37.49678 25.43067,-3.55814 50.02156,-2.70976 77.68796,-4.00514 C 476.77589,399.64314 419.99426,384.11434 407.5,379 386.83911,369.57341 365.48216,362.32517 344.80552,353.40387 319.19463,345.46004 292.24935,351.42917 268.5,363 c -22.97933,8.67334 -45.45685,19.45886 -68,30 -23.46568,10.01236 -50.56793,16.1979 -35.54512,46.94765 1.08686,30.66525 2.26124,61.3072 7.98457,90.98597 -1.25607,33.14503 21.65474,60.96617 38.23677,88.21353 15.99273,23.01928 38.91399,37.83953 59.6481,56.40357 C 306.24865,710.06919 343.2688,747.99486 359,795.5 c 8.78826,22.9577 11.45732,47.56881 17.65653,71.24914 C 378.97867,882.09197 383.37922,918.03574 369,884.5 359.00383,855.28269 343.11841,826.67816 321.23779,804.21035 314.26605,790.8493 287.77108,764.23794 301,795.5 c 6.87185,24.79104 11.2762,50.35994 19.59613,74.69448 2.99291,26.63686 27.14065,74.93138 -22.10059,61.61905 -17.21855,-1.10756 -30.62256,3.14645 -46.81918,-0.39806 l -5.1406,-5.36271 z M 415.5,579 c -41.56992,-11.78317 25.0924,-3.08861 39.04803,-10.18192 23.39807,-7.19938 66.60466,-37.97903 55.00197,7.23192 -27.62968,8.54217 -65.51627,5.6496 -94.05,2.95 z"
         sodipodi:nodetypes="ccsccccccccccccccccccccccccccccccccccccccccccccccccc" />
      <path
         style="display:inline;fill:#1c1c1c"
         d="m 660.41997,389.36162 79.72376,0.87747 -42.99891,31.38216 47.47463,196.60406 -5.5034,0.61872 z"
         id="path57"
         sodipodi:nodetypes="cccccc" />
      <path
         style="fill:#f8efe3;stroke:none;stroke-opacity:1"
         d="m 662.77029,390.64488 139.79355,1.20431 -0.43873,-3.94859 -146.10937,-2.1766 80.51576,236.4658 72.61332,-0.66452 -0.99376,-233.72385 -3.15949,0.0319 0.27445,230.09043 -65.32157,-0.14297 z"
         id="path58"
         sodipodi:nodetypes="ccccccccccc" />
    </g>
  </g>
  <g
     id="exclamation-point-dot">
    <path
       id="exclamation-point-dot-red-rectangle"
       d="M 742.12605,641 H 811 V 743 H 776.840336 Z"
       fill="#b43a2c" />
    <g
       id="exclamation-point-dot-black-dots"
       fill="#1c1c1c">
      <g
         id="dot-column-1">
        <circle
           cx="736"
           cy="641"
           r="1.2"
           id="circle9" />
        <circle
           cx="736"
           cy="660"
           r="1.2"
           id="circle10" />
        <circle
           cx="736"
           cy="679"
           r="1.2"
           id="circle11" />
        <circle
           cx="736"
           cy="698"
           r="1.2"
           id="circle12" />
        <circle
           cx="736"
           cy="717"
           r="1.2"
           id="circle13" />
        <circle
           cx="736"
           cy="736"
           r="1.2"
           id="circle14" />
      </g>
      <g
         id="dot-column-2">
        <circle
           cx="745"
           cy="650"
           r="1.7"
           id="circle15" />
        <circle
           cx="745"
           cy="669"
           r="1.7"
           id="circle16" />
        <circle
           cx="745"
           cy="688"
           r="1.7"
           id="circle17" />
        <circle
           cx="745"
           cy="707"
           r="1.7"
           id="circle18" />
        <circle
           cx="745"
           cy="726"
           r="1.7"
           id="circle19" />
        <circle
           cx="745"
           cy="745"
           r="1.7"
           id="circle20" />
      </g>
      <g
         id="dot-column-3">
        <circle
           cx="754"
           cy="641"
           r="2.2"
           id="circle21" />
        <circle
           cx="754"
           cy="660"
           r="2.2"
           id="circle22" />
        <circle
           cx="754"
           cy="679"
           r="2.2"
           id="circle23" />
        <circle
           cx="754"
           cy="698"
           r="2.2"
           id="circle24" />
        <circle
           cx="754"
           cy="717"
           r="2.2"
           id="circle25" />
        <circle
           cx="754"
           cy="736"
           r="2.2"
           id="circle26" />
      </g>
      <g
         id="dot-column-4">
        <circle
           cx="763"
           cy="650"
           r="2.8"
           id="circle27" />
        <circle
           cx="763"
           cy="669"
           r="2.8"
           id="circle28" />
        <circle
           cx="763"
           cy="688"
           r="2.8"
           id="circle29" />
        <circle
           cx="763"
           cy="707"
           r="2.8"
           id="circle30" />
        <circle
           cx="763"
           cy="726"
           r="2.8"
           id="circle31" />
        <circle
           cx="763"
           cy="745"
           r="2.8"
           id="circle32" />
      </g>
      <g
         id="dot-column-5">
        <circle
           cx="772"
           cy="641"
           r="3.5"
           id="circle33" />
        <circle
           cx="772"
           cy="660"
           r="3.5"
           id="circle34" />
        <circle
           cx="772"
           cy="679"
           r="3.5"
           id="circle35" />
        <circle
           cx="772"
           cy="698"
           r="3.5"
           id="circle36" />
        <circle
           cx="772"
           cy="717"
           r="3.5"
           id="circle37" />
        <circle
           cx="772"
           cy="736"
           r="3.5"
           id="circle38" />
      </g>
      <g
         id="dot-column-6">
        <circle
           cx="781"
           cy="650"
           r="4.4"
           id="circle39" />
        <circle
           cx="781"
           cy="669"
           r="4.4"
           id="circle40" />
        <circle
           cx="781"
           cy="688"
           r="4.4"
           id="circle41" />
        <circle
           cx="781"
           cy="707"
           r="4.4"
           id="circle42" />
        <circle
           cx="781"
           cy="726"
           r="4.4"
           id="circle43" />
        <circle
           cx="781"
           cy="745"
           r="4.4"
           id="circle44" />
      </g>
      <g
         id="dot-column-7">
        <circle
           cx="793"
           cy="641"
           r="5.4"
           id="circle45" />
        <circle
           cx="793"
           cy="660"
           r="5.4"
           id="circle46" />
        <circle
           cx="793"
           cy="679"
           r="5.4"
           id="circle47" />
        <circle
           cx="793"
           cy="698"
           r="5.4"
           id="circle48" />
        <circle
           cx="793"
           cy="717"
           r="5.4"
           id="circle49" />
        <circle
           cx="793"
           cy="736"
           r="5.4"
           id="circle50" />
      </g>
      <g
         id="dot-column-8">
        <circle
           cx="807"
           cy="650"
           r="6.6"
           id="circle51" />
        <circle
           cx="807"
           cy="669"
           r="6.6"
           id="circle52" />
        <circle
           cx="807"
           cy="688"
           r="6.6"
           id="circle53" />
        <circle
           cx="807"
           cy="707"
           r="6.6"
           id="circle54" />
        <circle
           cx="807"
           cy="726"
           r="6.6"
           id="circle55" />
        <circle
           cx="807"
           cy="745"
           r="6.6"
           id="circle56" />
      </g>
    </g>
  </g>
</svg>
