<?xml version="1.0" encoding="UTF-8"?>
<!--
  Original Art Archive (OAA) logo

  Copyright © 2026 Remgrandt Works.

  The names "Original Art Archive," "OAA," and associated logos,
  marks, and branding are reserved by Remgrandt Works.

  This asset may be used to truthfully describe compatibility with
  the Original Art Archive Format, such as "supports OAA," "imports
  OAA files," or "exports OAA archives."

  This asset may not be used to imply official status, endorsement,
  certification, or maintenance by the OAA project or Remgrandt Works
  without written permission.

  Usage is governed by LICENSE.md and assets/README.md in the OAA
  Format repository.

  SPDX-License-Identifier: LicenseRef-OAA-Mark-Usage
-->
<svg
   viewBox="0 0 1024 1024"
   width="1024"
   height="1024"
   role="img"
   aria-labelledby="oaa-logo-title oaa-logo-description"
   shape-rendering="geometricPrecision"
   color-rendering="optimizeQuality"
   version="1.1"
   id="oaa-logo-svg"
   xmlns="http://www.w3.org/2000/svg"
   xmlns:svg="http://www.w3.org/2000/svg"
   xmlns:rdf="http://www.w3.org/1999/02/22-rdf-syntax-ns#"
   xmlns:dc="http://purl.org/dc/elements/1.1/"
   xmlns:dcterms="http://purl.org/dc/terms/">
  <title
     id="oaa-logo-title">Original Art Archive (OAA) logo</title>
  <desc
     id="oaa-logo-description">Official logo mark for the Original Art Archive (OAA) Format.</desc>
  <metadata
     id="oaa-logo-rights-metadata">
    <rdf:RDF>
      <rdf:Description
         rdf:about="">
        <dc:title>Original Art Archive (OAA) logo</dc:title>
        <dc:creator>Remgrandt Works</dc:creator>
        <dcterms:publisher>Remgrandt Works</dcterms:publisher>
        <dc:rights>Copyright © 2026 Remgrandt Works. The names "Original Art Archive," "OAA," and associated logos, marks, and branding are reserved. Compatibility use is permitted as described in the OAA Format repository license and mark policy.</dc:rights>
        <dc:type>Logo / format mark</dc:type>
        <dcterms:created>2026</dcterms:created>
        <dcterms:identifier>oaa-logo</dcterms:identifier>
        <dcterms:hasVersion>0.1 Draft</dcterms:hasVersion>
        <dcterms:source>https://github.com/original-art-archive/format</dcterms:source>
        <dcterms:references>https://github.com/original-art-archive/format/blob/main/LICENSE.md</dcterms:references>
        <dcterms:references>https://github.com/original-art-archive/format/blob/main/assets/README.md</dcterms:references>
      </rdf:Description>
    </rdf:RDF>
  </metadata>
  <g
     id="oaa-logo-scaled-art"
     transform="translate(98.669728,64) scale(6.596878)">
    <g
       transform="translate(-58,-38.178184)"
       id="oaa-logo-page-stack">
      <g
         id="oaa-logo-white-border"
         aria-hidden="true"
         fill="none"
         stroke="#ffffff"
         stroke-linejoin="round"
         stroke-linecap="round"
         pointer-events="none">
        <rect
           x="83"
           y="45"
           width="92"
           height="112"
           transform="rotate(-8,129,101)"
           style="stroke-width:4.8" />
        <rect
           x="73"
           y="51"
           width="92"
           height="112"
           transform="rotate(-3,119,107)"
           style="stroke-width:4.8" />
        <rect
           x="62"
           y="58"
           width="92"
           height="112"
           style="stroke-width:4.8" />
        <rect
           x="68"
           y="64"
           width="80"
           height="100"
           style="stroke-width:4.8" />
        <rect
           x="76"
           y="70"
           width="64"
           height="88"
           style="stroke-width:4.6;stroke-dasharray:3,3" />
        <rect
           x="69"
           y="94"
           width="78"
           height="34"
           rx="6"
           style="stroke-width:3.2" />
        <path
           transform="translate(51.4675,62.6925) scale(0.095)"
           style="stroke-width:33.68421053"
           d="M493 508.5 A115.5 121.5 0 1 1 262 508.5 A115.5 121.5 0 1 1 493 508.5 Z M443 508.5 A65.5 69.5 0 1 0 312 508.5 A65.5 69.5 0 1 0 443 508.5 Z" />
        <path
           transform="translate(53.9475,62.6925) scale(0.095)"
           style="stroke-width:33.68421053"
           d="M561 390 H600 L681 628 H630 L616 586 H544 L529 628 H478 Z M579 485 L556 545 H604 Z" />
        <path
           transform="translate(74.9475,62.6925) scale(0.095)"
           style="stroke-width:33.68421053"
           d="M561 390 H600 L681 628 H630 L616 586 H544 L529 628 H478 Z M579 485 L556 545 H604 Z" />
      </g>
      <rect
         x="83"
         y="45"
         width="92"
         height="112"
         transform="rotate(-8,129,101)"
         id="oaa-logo-back-page"
         style="fill:#ffffff;fill-opacity:1;stroke:#202020;stroke-width:1.6;stroke-linejoin:round;stroke-linecap:round" />
      <rect
         x="73"
         y="51"
         width="92"
         height="112"
         transform="rotate(-3,119,107)"
         id="oaa-logo-middle-page"
         style="fill:#ffffff;fill-opacity:1;stroke:#202020;stroke-width:1.6;stroke-linejoin:round;stroke-linecap:round" />
      <rect
         x="62"
         y="58"
         width="92"
         height="112"
         id="oaa-logo-front-page"
         style="fill:#ffffff;fill-opacity:1;stroke:#202020;stroke-width:1.6;stroke-linejoin:round;stroke-linecap:round" />
      <rect
         x="68"
         y="64"
         width="80"
         height="100"
         id="oaa-logo-front-page-trim-line"
         style="fill:none;stroke:#2A7FA3;stroke-width:1.6;stroke-linejoin:round" />
      <rect
         x="76"
         y="70"
         width="64"
         height="88"
         id="oaa-logo-front-page-live-area"
         style="fill:none;stroke:#2A7FA3;stroke-width:1.4;stroke-linejoin:round;stroke-dasharray:3,3" />
      <rect
         x="69"
         y="94"
         width="78"
         height="34"
         rx="6"
         id="oaa-logo-wordmark-banner"
         style="fill:#2A7FA3" />
      <g
         id="oaa-logo-wordmark"
         fill="#fffdf8"
         fill-rule="evenodd">
        <path
           id="oaa-logo-wordmark-letter-o"
           transform="translate(51.4675,62.6925) scale(0.095)"
           d="M493 508.5 A115.5 121.5 0 1 1 262 508.5 A115.5 121.5 0 1 1 493 508.5 Z M443 508.5 A65.5 69.5 0 1 0 312 508.5 A65.5 69.5 0 1 0 443 508.5 Z" />
        <path
           id="oaa-logo-wordmark-letter-a-first"
           transform="translate(53.9475,62.6925) scale(0.095)"
           d="M561 390 H600 L681 628 H630 L616 586 H544 L529 628 H478 Z M579 485 L556 545 H604 Z" />
        <path
           id="oaa-logo-wordmark-letter-a-second"
           transform="translate(74.9475,62.6925) scale(0.095)"
           d="M561 390 H600 L681 628 H630 L616 586 H544 L529 628 H478 Z M579 485 L556 545 H604 Z" />
      </g>
    </g>
  </g>
</svg>
